<svg xmlns="http://www.w3.org/2000/svg" version="1.1" xmlns:xlink="http://www.w3.org/1999/xlink" xmlns:svgjs="http://svgjs.dev/svgjs" width="1000" height="338" viewBox="0 0 1000 338"><g transform="matrix(1,0,0,1,-0.6057687612491236,0.26377704846291294)"><svg viewBox="0 0 396 134" data-background-color="#755bb4" preserveAspectRatio="xMidYMid meet" height="338" width="1000" xmlns="http://www.w3.org/2000/svg" xmlns:xlink="http://www.w3.org/1999/xlink"><g id="tight-bounds" transform="matrix(1,0,0,1,0.23988442945466204,-0.10457433282257966)"><svg viewBox="0 0 395.52 134.20891752455452" height="134.20891752455452" width="395.52"><g><svg viewBox="0 0 665.0442364578346 225.6646113494889" height="134.20891752455452" width="395.52"><g transform="matrix(1,0,0,1,0,26.71694633878778)"><svg viewBox="0 0 395.52 172.23071867191334" height="172.23071867191334" width="395.52"><g><svg viewBox="0 0 395.52 172.23071867191334" height="172.23071867191334" width="395.52"><g><svg viewBox="0 0 395.52 92.89301985027222" height="92.89301985027222" width="395.52"><g transform="matrix(1,0,0,1,0,0)"><svg width="395.52" viewBox="3.5 -32.102343791655 139.74 32.352343791655" height="92.89301985027222" data-palette-color="#ffffff"><path d="M6.15-31.75Q7.1-31.75 7.88-31.25 8.65-30.75 8.8-29.5L8.8-29.5Q9.4-25.55 9.58-21.63 9.75-17.7 9.75-12.75L9.75-12.75Q9.75-10.65 9.4-5.1L9.4-5.1Q11.6-4.9 12.8-4.9L12.8-4.9Q13.65-4.9 16.65-5.15L16.65-5.15Q18.4-5.4 19.7-5.4L19.7-5.4Q20.9-5.4 21.9-5.18 22.9-4.95 23.95-4.45L23.95-4.45Q25-3.85 25-2.6L25-2.6Q25-1.6 24.38-0.8 23.75 0 22.9 0L22.9 0Q22.3 0 21-0.2L21-0.2Q18.65-0.55 16.5-0.55L16.5-0.55Q15.8-0.55 14.93-0.48 14.05-0.4 13.65-0.4L13.65-0.4Q12.45-0.25 11.25-0.25L11.25-0.25Q8.8-0.25 6.85-0.5L6.85-0.5Q5.85-0.6 4.85-1.28 3.85-1.95 3.85-3.25L3.85-3.25Q3.85-4 4.05-7.1L4.05-7.1Q4.4-12.25 4.4-14.95L4.4-14.95Q4.4-17.05 4.2-19.35 4-21.65 3.95-22.25L3.95-22.25Q3.5-26.5 3.5-29.25L3.5-29.25Q3.5-30.55 4.13-31.15 4.75-31.75 6.15-31.75L6.15-31.75ZM50.65-2.4Q50.65-1.3 49.47-0.55 48.3 0.2 47.3 0.2L47.3 0.2Q45.4 0.2 44.27-0.28 43.15-0.75 42.2-2.05L42.2-2.05Q40.9-0.9 38.65-0.33 36.4 0.25 34.5 0.25L34.5 0.25Q31.4 0.25 29.4-1.43 27.4-3.1 27.4-6.35L27.4-6.35Q27.4-7.75 28.15-8.93 28.9-10.1 30.2-11L30.2-11Q31.65-11.95 33.5-12.48 35.35-13 37.35-13L37.35-13Q38.4-13 39.85-12.6 41.3-12.2 42.1-11.75L42.1-11.75 42.1-12.55Q42.1-15.25 40.8-16.28 39.5-17.3 36.6-17.3L36.6-17.3Q35.75-17.3 34.92-16.95 34.1-16.6 33.05-16L33.05-16Q31.65-15.25 30.4-15.25L30.4-15.25Q29.95-15.25 29.55-15.88 29.15-16.5 29.15-17L29.15-17Q29.15-18.45 30.52-19.5 31.9-20.55 33.8-21.08 35.7-21.6 37.2-21.6L37.2-21.6Q38.7-21.6 40.65-21.03 42.6-20.45 43.85-19.45L43.85-19.45Q45.35-18.15 46.17-16.43 47-14.7 47-12.65L47-12.65Q47-12 46.9-10.7L46.9-10.7Q46.8-9.3 46.8-8.3L46.8-8.3Q46.8-7.85 46.7-6.95L46.7-6.95Q46.6-5.85 46.6-5.2L46.6-5.2Q46.6-4.6 47.05-4.17 47.5-3.75 48.1-3.75L48.1-3.75 49.5-3.8Q50.05-3.8 50.35-3.4 50.65-3 50.65-2.4L50.65-2.4ZM34.55-3.7Q36.7-3.7 38.15-4.15 39.6-4.6 41.65-5.8L41.65-5.8Q41.85-6.65 41.9-8.05L41.9-8.05Q39.15-9.35 37.35-9.35L37.35-9.35Q35.3-9.35 33.7-8.6 32.1-7.85 32.1-5.95L32.1-5.95Q32.1-5 32.9-4.35 33.7-3.7 34.55-3.7L34.55-3.7ZM61.34-2Q61.34-1.15 60.7-0.5 60.05 0.15 59.09 0.15L59.09 0.15Q57.59 0.15 56.9-0.43 56.2-1 56.2-2.55L56.2-2.55Q56.2-4.4 56.09-7.4L56.09-7.4Q56-9.9 56-11.6L56-11.6Q56-12.4 56.09-13.7L56.09-13.7Q56.2-14.9 56.2-15.5L56.2-15.5Q56.05-16.45 55.45-17.07 54.84-17.7 53.9-17.7L53.9-17.7Q53.45-17.7 53.15-18.13 52.84-18.55 52.84-19L52.84-19Q52.84-20.15 53.77-20.75 54.7-21.35 56-21.35L56-21.35Q58.7-21.35 59.75-18.15L59.75-18.15Q61.05-19.65 62.72-20.58 64.4-21.5 65.95-21.5L65.95-21.5Q67.8-21.5 69.32-20.5 70.84-19.5 70.84-17.8L70.84-17.8Q70.84-16.85 70.02-15.85 69.2-14.85 68.34-14.85L68.34-14.85Q67.9-14.85 67.57-15.08 67.25-15.3 66.8-15.75L66.8-15.75Q66.3-16.25 65.95-16.48 65.59-16.7 65.15-16.7L65.15-16.7Q64.34-16.7 63.65-16.45 62.95-16.2 62.7-15.85L62.7-15.85Q61.9-14.6 61.52-13.6 61.15-12.6 61.15-11.45L61.15-11.45Q61.15-10.6 61.09-10.1L61.09-10.1 61.05-7.25Q61.05-6.6 61.09-5.8 61.15-5 61.2-4.6L61.2-4.6Q61.34-3.25 61.34-2L61.34-2ZM76.34-32.1Q78.09-31.95 79.39-31.18 80.69-30.4 80.69-28.85L80.69-28.85Q80.69-27.7 79.62-27.03 78.54-26.35 77.04-26.35L77.04-26.35Q75.59-26.35 75.04-27.1 74.49-27.85 74.49-28.65L74.49-28.65Q74.49-30.15 74.82-31.15 75.14-32.15 76.34-32.1L76.34-32.1ZM80.34-18.95L80.34-9.95 80.34-8.5Q80.34-6.55 80.47-4.83 80.59-3.1 80.79-1.35L80.79-1.35Q80.74-0.85 80.04-0.33 79.34 0.2 78.79 0.2L78.79 0.2Q77.84 0.2 76.87-0.18 75.89-0.55 75.69-1.1L75.69-1.1Q75.39-2.7 75.39-3.95L75.39-3.95Q75.39-8.05 75.14-13.15L75.14-13.15Q74.94-17.65 74.94-19.45L74.94-19.45Q74.94-20.35 75.84-21 76.74-21.65 77.74-21.65L77.74-21.65Q79.19-21.65 79.77-21 80.34-20.35 80.34-18.95L80.34-18.95ZM88.99-17.1L86.59-17.3Q85.89-17.4 85.47-17.9 85.04-18.4 85.04-19.1L85.04-19.1Q85.04-19.45 85.22-19.85 85.39-20.25 85.74-20.55L85.74-20.55Q86.39-21.2 89.24-21.2L89.24-21.2Q89.64-23.15 89.64-25.15L89.64-25.15Q89.64-25.9 89.59-26.45 89.54-27 89.54-27.3L89.54-27.3Q89.54-28.4 90.37-28.95 91.19-29.5 92.24-29.5L92.24-29.5Q93.54-29.5 94.02-28.85 94.49-28.2 94.49-26.45L94.49-26.45Q94.49-23.85 94.04-21.35L94.04-21.35Q94.84-21.35 96.24-21.45L96.24-21.45Q98.14-21.55 98.99-21.55L98.99-21.55Q99.84-21.55 100.47-21.13 101.09-20.7 101.09-19.95L101.09-19.95Q101.09-18 99.34-17.65L99.34-17.65Q97.49-17.2 93.59-17.1L93.59-17.1Q93.44-15.15 93.44-12.85L93.44-12.85Q93.44-9.25 93.89-6.95L93.89-6.95Q94.19-5.35 94.92-4.63 95.64-3.9 97.09-3.9L97.09-3.9Q97.94-3.9 98.84-4.35L98.84-4.35Q99.44-4.7 99.94-4.7L99.94-4.7Q100.64-4.7 100.97-4.25 101.29-3.8 101.29-3.05L101.29-3.05Q101.29-1.65 99.79-0.73 98.29 0.2 95.94 0.2L95.94 0.2Q94.49 0.2 93.02-0.5 91.54-1.2 90.54-2.25L90.54-2.25Q90.39-2.4 89.99-3.4 89.59-4.4 89.29-5.55L89.29-5.55Q88.79-7.9 88.79-12.15L88.79-12.15Q88.79-14 88.99-17.1L88.99-17.1ZM107.79-17.1L105.39-17.3Q104.69-17.4 104.26-17.9 103.84-18.4 103.84-19.1L103.84-19.1Q103.84-19.45 104.01-19.85 104.19-20.25 104.54-20.55L104.54-20.55Q105.19-21.2 108.04-21.2L108.04-21.2Q108.44-23.15 108.44-25.15L108.44-25.15Q108.44-25.9 108.39-26.45 108.34-27 108.34-27.3L108.34-27.3Q108.34-28.4 109.16-28.95 109.99-29.5 111.04-29.5L111.04-29.5Q112.34-29.5 112.81-28.85 113.29-28.2 113.29-26.45L113.29-26.45Q113.29-23.85 112.84-21.35L112.84-21.35Q113.64-21.35 115.04-21.45L115.04-21.45Q116.94-21.55 117.79-21.55L117.79-21.55Q118.64-21.55 119.26-21.13 119.89-20.7 119.89-19.95L119.89-19.95Q119.89-18 118.14-17.65L118.14-17.65Q116.29-17.2 112.39-17.1L112.39-17.1Q112.24-15.15 112.24-12.85L112.24-12.85Q112.24-9.25 112.69-6.95L112.69-6.95Q112.99-5.35 113.71-4.63 114.44-3.9 115.89-3.9L115.89-3.9Q116.74-3.9 117.64-4.35L117.64-4.35Q118.24-4.7 118.74-4.7L118.74-4.7Q119.44-4.7 119.76-4.25 120.09-3.8 120.09-3.05L120.09-3.05Q120.09-1.65 118.59-0.73 117.09 0.2 114.74 0.2L114.74 0.2Q113.29 0.2 111.81-0.5 110.34-1.2 109.34-2.25L109.34-2.25Q109.19-2.4 108.79-3.4 108.39-4.4 108.09-5.55L108.09-5.55Q107.59-7.9 107.59-12.15L107.59-12.15Q107.59-14 107.79-17.1L107.79-17.1ZM123.79-10.6Q123.79-12.5 124.49-14.43 125.19-16.35 126.34-17.95L126.34-17.95Q127.49-19.55 129.99-20.58 132.49-21.6 134.44-21.6L134.44-21.6Q136.44-21.6 138.51-21.05 140.59-20.5 141.39-19.35L141.39-19.35Q143.24-16.75 143.24-14.25L143.24-14.25Q143.24-12.9 142.66-11.95 142.09-11 141.04-9.9L141.04-9.9Q140.19-9 138.36-8.7 136.54-8.4 134.74-8.4L134.74-8.4Q133.59-8.4 131.94-8.63 130.29-8.85 128.74-9.2L128.74-9.2Q128.84-8.2 129.24-7.25 129.64-6.3 130.19-5.8L130.19-5.8Q131.19-4.85 132.26-4.6 133.34-4.35 135.04-4.35L135.04-4.35Q136.84-4.35 138.39-4.95L138.39-4.95Q139.64-5.4 140.44-5.4L140.44-5.4Q141.39-5.4 141.89-4.83 142.39-4.25 142.39-3.35L142.39-3.35Q142.39-2.1 140.94-1.3 139.49-0.5 137.61-0.13 135.74 0.25 134.59 0.25L134.59 0.25Q132.24 0.25 130.04-0.6 127.84-1.45 126.39-3L126.39-3Q125.19-4.4 124.49-6.38 123.79-8.35 123.79-10.6L123.79-10.6ZM134.69-17.35Q133.59-17.35 132.49-16.93 131.39-16.5 130.69-15.75L130.69-15.75Q129.79-14.8 129.46-14.23 129.14-13.65 129.04-12.65L129.04-12.65Q130.29-12.25 134.24-12.25L134.24-12.25Q136.39-12.25 137.56-12.9 138.74-13.55 138.74-14.6L138.74-14.6Q138.74-15.65 137.44-16.5 136.14-17.35 134.69-17.35L134.69-17.35Z" opacity="1" transform="matrix(1,0,0,1,0,0)" fill="#ffffff" class="undefined-text-0" data-fill-palette-color="primary" id="text-0"></path></svg></g></svg></g><g transform="matrix(1,0,0,1,0,114.8228324044451)"><svg viewBox="0 0 395.52 57.407886267468236" height="57.407886267468236" width="395.52"><g transform="matrix(1,0,0,1,0,0)"><svg width="395.52" viewBox="1.6 -34.9 243.20000000000002 35.3" height="57.407886267468236" data-palette-color="#ffffff"><path d="M17-29.05L17-29.05Q15.3-29.5 13.45-29.5 11.6-29.5 10.48-28.58 9.35-27.65 9.35-25.98 9.35-24.3 10.2-23.35 11.05-22.4 13.55-21.7L13.55-21.7 18-20.4Q21.6-19.35 23.73-17.13 25.85-14.9 25.85-10.6L25.85-10.6Q25.85-5.5 22.18-2.55 18.5 0.4 13.05 0.4L13.05 0.4Q10.05 0.4 6.88-0.38 3.7-1.15 1.6-2.55L1.6-2.55Q1.6-2.85 1.6-3.7 1.6-4.55 1.95-6.6 2.3-8.65 2.95-9.95L2.95-9.95 7.7-9.95Q8.5-8.4 8.65-5.8L8.65-5.8Q10.4-5.05 12.73-5.05 15.05-5.05 16.55-6.15 18.05-7.25 18.05-9.3L18.05-9.3Q18.05-10.25 17.9-10.88 17.75-11.5 16.98-12.23 16.2-12.95 14.75-13.4L14.75-13.4 9.6-14.9Q1.75-17.15 1.75-24.9L1.75-24.9Q1.75-29.45 5.05-32.18 8.35-34.9 13.68-34.9 19-34.9 24.1-32.5L24.1-32.5Q24.1-32.2 24.1-31.35 24.1-30.5 23.75-28.45 23.4-26.4 22.75-25.1L22.75-25.1 18-25.1Q17.15-26.3 17-29.05ZM132.23-8.7L132.23 0 109.03 0 108.53-4.15Q109.18-5 111.28-5.8L111.28-5.8 111.28-28.65Q109.23-29.4 108.53-30.35L108.53-30.35 109.03-34.5 131.83-34.5 131.83-25.8 128.13-25.35Q126.98-26.35 126.28-29.05L126.28-29.05 118.48-29.05 118.48-20.45 125.43-20.45Q126.03-21.95 126.68-22.55L126.68-22.55 129.83-22.2 129.83-13.3 126.68-12.9Q126.03-13.4 125.43-15L125.43-15 118.48-15 118.48-5.45 126.68-5.45Q127.33-8.05 128.53-9.15L128.53-9.15 132.23-8.7ZM242.05-12.5Q242.05-5.95 239.08-2.78 236.1 0.4 229.45 0.4 222.8 0.4 220.13-2.73 217.45-5.85 217.45-12.5L217.45-12.5 217.45-28.65Q215.55-29.35 214.7-30.35L214.7-30.35 215.2-34.5 226.9-34.5 227.4-30.35Q226.6-29.4 224.65-28.65L224.65-28.65 224.65-12.3Q224.65-8.7 225.83-6.98 227-5.25 230.05-5.25 233.1-5.25 234.35-7.03 235.6-8.8 235.6-12.3L235.6-12.3 235.6-28.65Q233.55-29.4 232.85-30.35L232.85-30.35 233.35-34.5 244.3-34.5 244.8-30.35Q244-29.4 242.05-28.65L242.05-28.65 242.05-12.5Z" opacity="1" transform="matrix(1,0,0,1,0,0)" fill="#ffffff" class="undefined-text-1" data-fill-palette-color="secondary" id="text-1"></path></svg></g></svg></g></svg></g></svg></g><g transform="matrix(1,0,0,1,439.3796251083457,0)"><svg viewBox="0 0 225.6646113494889 225.6646113494889" height="225.6646113494889" width="225.6646113494889"><g><svg></svg></g><g id="icon-0"><svg viewBox="0 0 225.6646113494889 225.6646113494889" height="225.6646113494889" width="225.6646113494889"><g><path d="M0 112.832c0-62.316 50.517-112.832 112.832-112.832 62.316 0 112.832 50.517 112.833 112.832 0 62.316-50.517 112.832-112.833 112.833-62.316 0-112.832-50.517-112.832-112.833zM112.832 217.287c57.689 0 104.455-46.766 104.455-104.455 0-57.689-46.766-104.455-104.455-104.455-57.689 0-104.455 46.766-104.455 104.455 0 57.689 46.766 104.455 104.455 104.455z" data-fill-palette-color="accent" fill="#ffffff" stroke="transparent"></path></g><g transform="matrix(1,0,0,1,57.334959049266836,47.613337526624306)"><svg viewBox="0 0 110.99469325095522 130.43793629624028" height="130.43793629624028" width="110.99469325095522"><g><svg xmlns="http://www.w3.org/2000/svg" xmlns:xlink="http://www.w3.org/1999/xlink" version="1.1" x="0" y="0" viewBox="8.053999999999998 0 83.80300000000001 98.48300000000002" enable-background="new 0 0 100 100" xml:space="preserve" height="130.43793629624028" width="110.99469325095522" class="icon-kj-0" data-fill-palette-color="accent" id="kj-0"><path fill-rule="evenodd" clip-rule="evenodd" d="M49.977 61.374c-2.008 0.221-3.228-0.85-4.254-2.335-0.226-0.325-0.718-0.692-1.067-0.675-3.621 0.17-6.158-4.368-4.424-7.398 0.363-0.635 0.365-1.129-0.002-1.769-1.739-3.016 0.829-7.625 4.419-7.379 0.33 0.023 0.852-0.298 1.004-0.6 1.699-3.347 6.977-3.423 8.714-0.015 0.157 0.307 0.687 0.636 1.017 0.611 3.569-0.274 6.265 4.421 4.343 7.568-0.299 0.492-0.322 0.881-0.013 1.39 1.927 3.157-0.712 7.83-4.422 7.592-0.314-0.021-0.758 0.355-0.968 0.664C53.26 60.596 51.951 61.647 49.977 61.374zM58.292 54.84c-0.396-0.524-0.656-1.044-1.067-1.382-0.729-0.601-1.584-1.048-2.322-1.642-1.846-1.48-1.779-2.042 0.03-3.502 0.71-0.572 1.55-0.986 2.249-1.568 0.424-0.353 0.692-0.889 1.113-1.454-1.438-0.33-2.355 0.299-3.326 0.761-0.73 0.345-1.476 0.668-2.239 0.928-0.806 0.275-1.354-0.096-1.483-0.905-0.169-1.066-0.197-2.155-0.367-3.22-0.127-0.794-0.385-1.569-0.583-2.351-0.163-0.006-0.322-0.012-0.484-0.017-0.2 0.577-0.487 1.14-0.578 1.733-0.129 0.834-0.063 1.697-0.17 2.537-0.312 2.45-0.809 2.763-3.088 1.799-0.778-0.33-1.486-0.832-2.274-1.131-0.545-0.207-1.168-0.199-1.757-0.287-0.068 0.148-0.134 0.297-0.203 0.445 0.621 0.588 1.209 1.213 1.869 1.752 0.601 0.491 1.328 0.831 1.914 1.336 1.263 1.09 1.257 1.781-0.031 2.861-0.672 0.563-1.498 0.941-2.172 1.502-0.586 0.486-1.058 1.115-1.582 1.679 0.101 0.157 0.2 0.313 0.301 0.469 0.839-0.269 1.694-0.5 2.513-0.819 0.91-0.354 1.772-0.842 2.69-1.176 0.758-0.279 1.379 0.01 1.514 0.849 0.188 1.167 0.231 2.355 0.418 3.521 0.119 0.726 0.39 1.428 0.641 2.308 1.027-0.933 0.999-1.906 1.103-2.835 0.107-0.971 0.158-1.954 0.325-2.915 0.146-0.857 0.743-1.228 1.566-0.921 0.916 0.34 1.793 0.786 2.683 1.194C56.314 54.764 57.113 55.23 58.292 54.84z" fill="#ffffff" data-fill-palette-color="accent"></path><path fill-rule="evenodd" clip-rule="evenodd" d="M50.012 31.156c-0.829 1.09-1.633 2.149-2.437 3.206-0.066-0.043-0.129-0.087-0.195-0.13 0.35-0.718 0.732-1.421 1.039-2.156 1.164-2.784 1.078-5.466-0.606-8.061-1.311-2.02-2.649-4.034-3.767-6.161-1.653-3.149-1.618-6.434-0.238-9.746 0.426 2.838 1.308 5.433 3.519 7.36 0.124-0.032 0.248-0.063 0.373-0.095-0.236-1.304-0.307-2.667-0.746-3.898-0.651-1.823-0.487-3.437 0.507-5.052 0.897-1.46 1.118-3.035 0.507-4.7 0.091-0.04 0.18-0.079 0.269-0.118 0.596 0.854 1.191 1.709 1.782 2.557 0.573-0.834 1.166-1.697 1.76-2.56 0.121 0.025 0.24 0.051 0.359 0.077-0.988 2.204 0.025 3.995 0.969 5.814 0.578 1.118 0.469 2.265 0.132 3.463-0.405 1.441-0.651 2.927-0.781 4.448 2.432-1.861 3.375-4.414 3.732-7.299 0.821 1.603 1.088 3.31 1.037 5.071-0.068 2.379-0.964 4.497-2.188 6.487-0.839 1.357-1.69 2.708-2.604 4.017-2.251 3.234-1.995 6.484-0.157 9.772 0.162 0.289 0.324 0.578 0.487 0.867-0.066 0.051-0.135 0.103-0.201 0.153C51.721 33.375 50.874 32.277 50.012 31.156zM50.017 14.049c-0.669 1.744-0.593 3.487-0.01 5.23C50.625 17.535 50.699 15.791 50.017 14.049z" fill="#ffffff" data-fill-palette-color="accent"></path><path fill-rule="evenodd" clip-rule="evenodd" d="M38.007 40.048c-1.328 0.184-2.659 0.368-4.011 0.555 0.52 1.308 1.029 2.588 1.539 3.868-0.068 0.038-0.134 0.075-0.2 0.111-0.145-0.226-0.302-0.443-0.431-0.675-1.922-3.463-4.663-5.311-8.815-4.887-2.452 0.25-4.959 0.284-7.416 0.083-3.061-0.252-5.383-1.988-7.201-4.463 2.627 1.055 5.266 1.515 8.177 0.451-1.171-0.945-2.424-1.398-3.697-1.591-1.972-0.296-3.273-1.327-4.166-3.041-0.771-1.48-1.99-2.447-3.732-2.739 0.038-0.105 0.076-0.209 0.114-0.313 1.001-0.081 2-0.162 3.055-0.249-0.428-0.94-0.867-1.899-1.306-2.856 0.061-0.045 0.125-0.092 0.188-0.138 0.16 0.127 0.337 0.237 0.477 0.382 0.953 0.979 2.125 1.498 3.476 1.432 2.1-0.101 3.72 0.607 5.036 2.301 0.725 0.933 1.797 1.596 2.816 2.47 0.244-2.042-1.427-4.664-4.295-7.233 0.398 0.071 0.799 0.124 1.192 0.214 3.354 0.767 5.803 2.742 7.441 5.714 0.948 1.724 1.826 3.493 2.629 5.288 1.625 3.624 4.536 5.048 8.331 5.042 0.238 0 0.474-0.006 0.712-0.005 0.028 0 0.056 0.025 0.083 0.039C38.004 39.887 38.004 39.967 38.007 40.048zM19.535 32.055c1.156 1.478 2.67 2.354 4.764 2.809C22.864 33.294 21.401 32.34 19.535 32.055z" fill="#ffffff" data-fill-palette-color="accent"></path><path fill-rule="evenodd" clip-rule="evenodd" d="M82.368 23.752c-2.27 1.716-3.915 3.833-4.508 7.021 0.804-0.57 1.417-0.942 1.952-1.403 0.613-0.531 1.209-1.1 1.724-1.727 0.938-1.141 2.125-1.648 3.572-1.617 1.836 0.038 3.519-0.314 4.716-1.918 0.086 0.058 0.17 0.116 0.256 0.176-0.41 0.937-0.821 1.875-1.258 2.872 0.979 0.079 1.996 0.16 3.01 0.241 0.01 0.067 0.018 0.136 0.025 0.203-0.16 0.085-0.31 0.208-0.479 0.251-1.371 0.348-2.378 1.193-3.009 2.414-0.956 1.851-2.335 2.956-4.457 3.291-1.187 0.188-2.303 0.824-3.402 1.414 2.796 1.179 5.455 0.739 8.098-0.376-1.833 2.5-4.174 4.258-7.27 4.518-2.421 0.203-4.896 0.171-7.312-0.087-4.143-0.444-6.908 1.364-8.863 4.806-0.114 0.2-0.229 0.398-0.343 0.597-0.081-0.033-0.164-0.067-0.245-0.102 0.477-1.226 0.953-2.453 1.439-3.706-1.369-0.202-2.715-0.399-4.062-0.597 0.013-0.053 0.028-0.106 0.041-0.16 1.103-0.109 2.216-0.143 3.301-0.342 2.492-0.456 4.354-1.818 5.494-4.107 0.94-1.883 1.83-3.792 2.814-5.651 1.657-3.132 4.149-5.247 7.659-6.048 0.324-0.074 0.653-0.117 0.979-0.174C82.284 23.61 82.324 23.681 82.368 23.752zM76.017 34.711c1.846-0.353 3.405-1.197 4.779-2.841C78.714 32.299 77.224 33.256 76.017 34.711z" fill="#ffffff" data-fill-palette-color="accent"></path><path fill-rule="evenodd" clip-rule="evenodd" d="M9.936 75.851c0.441-0.936 0.882-1.869 1.346-2.853-0.963-0.076-1.967-0.152-3.126-0.24 0.2-0.231 0.249-0.346 0.319-0.363 1.521-0.367 2.599-1.298 3.306-2.657 0.89-1.708 2.186-2.728 4.153-3.06 1.26-0.213 2.444-0.859 3.621-1.466-2.814-1.244-5.492-0.763-8.146 0.378 2.092-2.84 4.835-4.548 8.369-4.667 2.198-0.074 4.417 0.027 6.607 0.24 3.79 0.368 6.384-1.323 8.252-4.441 0.221-0.373 0.438-0.746 0.885-1.02-0.504 1.268-1.009 2.54-1.534 3.864 1.234 0.167 2.477 0.34 3.719 0.507-0.005 0.071-0.01 0.142-0.013 0.213-0.852 0.086-1.707 0.135-2.551 0.269-2.733 0.429-4.766 1.831-5.999 4.355-0.983 2.014-1.944 4.039-3.032 5.996-1.716 3.086-4.368 4.949-7.842 5.631-0.132 0.025-0.266 0.059-0.4 0.069-0.053 0.005-0.112-0.044-0.282-0.114 2.386-1.742 4.021-3.93 4.559-6.811-0.086-0.088-0.172-0.177-0.258-0.264-1.001 0.875-2.135 1.641-2.972 2.649-1.24 1.491-2.705 2.173-4.612 2.087-1.658-0.073-3.052 0.543-4.115 1.881C10.106 75.975 10.02 75.914 9.936 75.851zM24.329 65.321c-2.239 0.408-4.219 1.622-4.914 2.961C21.37 67.892 22.864 66.868 24.329 65.321z" fill="#ffffff" data-fill-palette-color="accent"></path><path fill-rule="evenodd" clip-rule="evenodd" d="M82.393 76.558c-3.328-0.434-6.059-1.894-7.852-4.718-1.177-1.856-2.213-3.826-3.08-5.847-1.663-3.877-4.551-5.677-8.701-5.616-0.16 0-0.322-0.04-0.502-0.294 1.252-0.167 2.505-0.329 3.811-0.504-0.492-1.21-0.991-2.442-1.493-3.674 0.075-0.041 0.151-0.079 0.228-0.117 0.14 0.219 0.281 0.437 0.413 0.659 1.907 3.253 4.523 5.081 8.517 4.721 2.621-0.232 5.299-0.286 7.918-0.04 2.969 0.278 5.197 2.062 6.962 4.449-2.654-1.144-5.324-1.59-8.189-0.322 0.802 0.365 1.587 0.776 2.411 1.086 0.664 0.248 1.369 0.397 2.066 0.542 1.161 0.238 2.069 0.814 2.692 1.833 1.01 1.65 1.944 3.385 4.209 3.707-0.038 0.111-0.073 0.223-0.111 0.335-0.943 0.081-1.889 0.159-2.9 0.243 0.421 0.938 0.844 1.879 1.27 2.821-0.076 0.071-0.151 0.14-0.23 0.208-1.222-1.612-2.91-1.919-4.746-1.896-1.516 0.021-2.69-0.636-3.712-1.792-0.948-1.075-2.106-1.963-3.309-2.807C78.393 72.598 80.104 74.75 82.393 76.558zM80.689 68.282c-1.034-1.552-3.197-2.807-4.881-2.859C77.155 66.873 78.661 67.912 80.689 68.282z" fill="#ffffff" data-fill-palette-color="accent"></path><path fill-rule="evenodd" clip-rule="evenodd" d="M47.337 84.636c-2.183 1.944-3.151 4.487-3.529 7.34-1.22-2.972-1.425-5.979-0.066-8.887 0.928-1.985 2.031-3.935 3.329-5.697 2.629-3.572 2.809-7.149 0.573-10.917-0.061-0.104-0.079-0.23 0.079-0.469 0.755 0.999 1.508 2.003 2.289 3.04 0.832-1.093 1.658-2.184 2.484-3.271 0.068 0.038 0.138 0.078 0.206 0.119-0.16 0.296-0.322 0.593-0.484 0.887-1.818 3.302-1.988 6.526 0.21 9.784 1.397 2.076 2.729 4.224 3.834 6.465 1.356 2.754 1.166 5.667 0.221 8.539-0.049 0.145-0.163 0.269-0.335 0.543-0.302-3.022-1.28-5.548-3.644-7.642-0.038 0.448-0.119 0.735-0.071 0.999 0.221 1.231 0.371 2.492 0.746 3.679 0.438 1.39 0.403 2.67-0.307 3.925-0.941 1.66-1.656 3.352-0.827 5.329-0.099 0.027-0.197 0.056-0.297 0.081-0.57-0.859-1.138-1.719-1.734-2.616-0.555 0.847-1.13 1.727-1.706 2.606-0.066-0.025-0.134-0.051-0.2-0.076 0.007-0.143-0.013-0.292 0.028-0.421 0.451-1.504 0.157-2.903-0.631-4.201-0.974-1.612-1.184-3.22-0.527-5.051 0.454-1.268 0.522-2.672 0.766-4.014C47.606 84.687 47.472 84.661 47.337 84.636zM50.04 80.462c-0.781 2.343-0.715 4.81 0.089 5.829C50.747 84.399 50.676 82.559 50.04 80.462z" fill="#ffffff" data-fill-palette-color="accent"></path><path fill-rule="evenodd" clip-rule="evenodd" d="M57.765 37.023c0.036-0.276 0.066-0.515 0.109-0.863-0.279 0.207-0.459 0.339-0.799 0.591-0.106-1.161-0.235-2.188-0.289-3.218-0.208-4.035 0.345-7.945 2.227-11.562 0.615-1.187 1.519-2.232 2.348-3.298 0.281-0.361 0.715-0.627 1.123-0.861 1.43-0.816 2.581-0.364 3.077 1.17 0.799-0.38 1.601-0.765 2.67-1.274 0.114 1.157 0.206 2.068 0.297 2.98 1.841-0.106 2.71 0.774 2.533 2.722-0.178 1.947-1.04 3.647-2.125 5.228-2.703 3.935-6.43 6.562-10.809 8.329C58.039 37.001 57.935 36.998 57.765 37.023zM58.611 34.891c3.745-1.69 6.894-7.465 5.685-10.302C60.787 26.014 57.976 31.065 58.611 34.891z" fill="#ffffff" data-fill-palette-color="accent"></path><path fill-rule="evenodd" clip-rule="evenodd" d="M35.157 49.662c-0.319 0.176-0.507 0.279-0.778 0.429 0.279 0.137 0.477 0.233 0.824 0.402-0.7 0.526-1.301 1.01-1.935 1.449-3.468 2.407-7.244 4.042-11.513 4.207-1.333 0.051-2.69-0.235-4.023-0.456-0.479-0.076-0.958-0.355-1.372-0.64-1.298-0.89-1.404-2.104-0.345-3.203-0.748-0.532-1.503-1.07-2.472-1.762 0.938-0.68 1.661-1.203 2.236-1.619-0.137-0.707-0.558-1.522-0.33-2.066 0.292-0.695 1.006-1.394 1.711-1.702 2.322-1.017 4.769-0.873 7.208-0.389C28.396 45.113 31.882 46.995 35.157 49.662zM32.941 50.048c-3.613-2.478-9.789-2.392-11.652 0.117C24.253 52.568 29.942 52.533 32.941 50.048z" fill="#ffffff" data-fill-palette-color="accent"></path><path fill-rule="evenodd" clip-rule="evenodd" d="M31.77 17.745c1.042 0.475 1.848 0.843 2.655 1.21 0.743-1.676 2.043-2.04 3.595-0.862 2.021 1.538 3.126 3.717 3.95 6.045 1.43 4.051 1.641 8.203 0.951 12.55-0.289-0.194-0.484-0.323-0.76-0.507 0.05 0.318 0.083 0.537 0.152 0.981-1.078-0.497-2.059-0.891-2.987-1.386-4.107-2.19-7.487-5.144-9.497-9.433-0.426-0.905-0.7-1.92-0.837-2.914-0.266-1.909 0.69-2.865 2.513-2.734C31.585 19.805 31.664 18.913 31.77 17.745zM35.665 24.589c-0.842 3.468 2.429 9.251 5.795 10.25C42 30.951 39.037 25.709 35.665 24.589z" fill="#ffffff" data-fill-palette-color="accent"></path><path fill-rule="evenodd" clip-rule="evenodd" d="M84.025 48.323c0.733 0.516 1.469 1.036 2.447 1.727-0.915 0.685-1.646 1.232-2.219 1.662 0.14 0.688 0.55 1.46 0.343 1.992-0.259 0.677-0.916 1.382-1.58 1.691-2.307 1.077-4.761 0.94-7.197 0.484-4.105-0.766-7.64-2.692-10.961-5.383 0.314-0.165 0.521-0.274 0.797-0.418-0.276-0.139-0.467-0.237-0.776-0.394 2.208-1.866 4.556-3.313 7.165-4.313 2.857-1.097 5.798-1.75 8.871-1.226 0.888 0.152 1.795 0.441 2.583 0.869C84.948 45.803 85.104 47.157 84.025 48.323zM67.107 50.069c3.154 2.51 9.391 2.464 11.681-0.029C75.888 47.626 70.429 47.62 67.107 50.069z" fill="#ffffff" data-fill-palette-color="accent"></path><path fill-rule="evenodd" clip-rule="evenodd" d="M68.481 79.418c-0.061 0.771-0.111 1.541-0.192 2.307-0.016 0.152-0.147 0.292-0.305 0.586-0.839-0.408-1.646-0.801-2.443-1.189-0.497 1.58-1.727 2.062-3.192 1.139-1.767-1.113-2.809-2.84-3.641-4.681-2.019-4.477-2.302-9.165-1.615-14.063 0.17 0.087 0.276 0.127 0.368 0.193 0.104 0.078 0.195 0.178 0.41 0.378-0.035-0.381-0.056-0.616-0.089-0.977 0.411 0.152 0.784 0.269 1.139 0.426 4.287 1.904 7.928 4.614 10.397 8.671 0.697 1.141 1.093 2.47 1.585 3.729 0.132 0.337 0.139 0.732 0.146 1.105C71.088 78.867 70.213 79.661 68.481 79.418zM64.412 75.698c0.837-3.537-2.426-9.302-5.818-10.382C57.887 68.97 60.731 74.089 64.412 75.698z" fill="#ffffff" data-fill-palette-color="accent"></path><path fill-rule="evenodd" clip-rule="evenodd" d="M42.276 63.05c-0.061 0.391-0.096 0.61-0.149 0.958 0.271-0.178 0.466-0.307 0.887-0.588 0.094 1.805 0.274 3.442 0.249 5.081-0.061 3.93-0.849 7.702-3.045 11.028-0.674 1.024-1.577 1.97-2.561 2.7-1.39 1.031-2.688 0.489-3.169-1.101-0.796 0.383-1.597 0.771-2.662 1.285-0.125-1.161-0.221-2.073-0.317-2.979-1.701 0.216-2.829-0.781-2.482-2.576 0.299-1.534 0.806-3.108 1.587-4.452C33.248 67.885 37.325 65.058 42.276 63.05zM41.501 65.255c-3.636 1.415-6.75 6.993-5.847 10.357C39.057 74.479 41.851 69.575 41.501 65.255z" fill="#ffffff" data-fill-palette-color="accent"></path><path fill-rule="evenodd" clip-rule="evenodd" d="M33.862 17.906c-1.014-1.069-1.006-2.064-0.002-2.931 0.986-0.854 2.14-0.947 3.352-0.634 1.792 0.464 3.157 1.564 4.227 3.016 2.928 3.976 3.689 8.533 3.354 13.322-0.122 1.744-0.515 3.468-0.882 5.169 0.048-2.537 0.229-5.08 0.112-7.608-0.17-3.623-1.101-7.066-3.54-9.876-0.801-0.923-1.833-1.743-2.92-2.297C35.763 15.149 34.328 15.92 33.862 17.906z" fill="#ffffff" data-fill-palette-color="accent"></path><path fill-rule="evenodd" clip-rule="evenodd" d="M40.943 37.317c-4.432-0.961-8.184-3.072-11.229-6.392-1.942-2.12-3.483-4.493-3.671-7.427-0.079-1.229 0.236-2.557 0.682-3.721 0.251-0.655 1.058-1.229 1.75-1.552 1.169-0.543 2.031 0.019 2.325 1.113-0.761 0.175-1.767 0.111-2.219 0.582-0.621 0.648-1.062 1.675-1.153 2.583-0.203 2.02 0.56 3.87 1.572 5.593 2.239 3.813 5.707 6.196 9.556 8.121C39.338 36.609 40.147 36.952 40.943 37.317z" fill="#ffffff" data-fill-palette-color="accent"></path><path fill-rule="evenodd" clip-rule="evenodd" d="M66.183 17.916c-0.525-2.048-1.955-2.714-3.882-1.824-1.628 0.752-2.776 2.047-3.712 3.528-2.365 3.751-2.81 7.936-2.652 12.234 0.046 1.28 0.211 2.557 0.112 3.874-0.229-1.207-0.522-2.405-0.675-3.622-0.556-4.472-0.097-8.809 1.998-12.869 0.963-1.873 2.276-3.463 4.206-4.424 1.361-0.677 2.773-0.962 4.188-0.151C67.125 15.442 67.308 16.722 66.183 17.916z" fill="#ffffff" data-fill-palette-color="accent"></path><path fill-rule="evenodd" clip-rule="evenodd" d="M59.159 37.34c1.323-0.663 2.672-1.281 3.966-1.998 2.91-1.614 5.499-3.618 7.393-6.407 1.164-1.71 1.962-3.571 2.112-5.654 0.043-0.598-0.011-1.229-0.157-1.81-0.444-1.737-1.557-2.343-3.245-1.838 0.124-1.185 0.925-1.793 2.063-1.531 1.204 0.278 1.924 1.109 2.348 2.207 0.783 2.022 0.484 4.019-0.299 5.953-1.476 3.635-4.133 6.303-7.398 8.292-1.889 1.15-4.052 1.857-6.095 2.752-0.2 0.088-0.438 0.095-0.659 0.14C59.177 37.411 59.167 37.375 59.159 37.34z" fill="#ffffff" data-fill-palette-color="accent"></path><path fill-rule="evenodd" clip-rule="evenodd" d="M85.342 48.375c1.447-1.596 1.285-3.194-0.459-4.41-2.183-1.52-4.67-1.769-7.226-1.444-4.389 0.558-8.08 2.666-11.519 5.307-0.269 0.207-0.527 0.427-0.796 0.635-0.046 0.036-0.116 0.04-0.324-0.111 1.25-1.059 2.429-2.215 3.76-3.159 3.811-2.704 7.983-4.351 12.766-3.909 1.724 0.158 3.329 0.715 4.649 1.877 1.065 0.934 1.787 2.066 1.593 3.564C87.608 48.095 86.843 48.617 85.342 48.375z" fill="#ffffff" data-fill-palette-color="accent"></path><path fill-rule="evenodd" clip-rule="evenodd" d="M34.493 48.265c-0.614-0.458-1.214-0.93-1.841-1.369-3.096-2.167-6.394-3.864-10.2-4.375-2.023-0.272-4.013-0.124-5.902 0.677-0.675 0.287-1.336 0.695-1.874 1.19-1.333 1.229-1.318 2.594-0.061 3.857-0.943 0.454-1.772 0.156-2.175-0.804-0.497-1.187-0.203-2.279 0.492-3.274 1.027-1.469 2.525-2.239 4.221-2.649 2.878-0.699 5.664-0.239 8.413 0.692C29.083 43.401 32.036 45.452 34.493 48.265z" fill="#ffffff" data-fill-palette-color="accent"></path><path fill-rule="evenodd" clip-rule="evenodd" d="M40.763 62.888c-1.09 0.527-2.198 1.014-3.263 1.587-3.177 1.709-6.034 3.808-8.072 6.857-1.111 1.661-1.892 3.464-2.039 5.477-0.046 0.664 0.015 1.369 0.193 2.011 0.458 1.673 1.594 2.259 3.207 1.744-0.185 1.182-0.897 1.704-2.021 1.471-1.316-0.273-2.013-1.207-2.424-2.381-0.637-1.817-0.434-3.638 0.238-5.39 1.67-4.344 4.906-7.282 8.876-9.449 1.643-0.896 3.451-1.486 5.182-2.214C40.682 62.694 40.722 62.791 40.763 62.888z" fill="#ffffff" data-fill-palette-color="accent"></path><path fill-rule="evenodd" clip-rule="evenodd" d="M14.753 51.854c-1.329 1.165-1.415 2.448-0.314 3.69 1.146 1.304 2.69 1.795 4.328 2.054 3.922 0.613 7.477-0.553 10.823-2.434 1.815-1.024 3.511-2.262 5.4-3.248-1.514 1.212-2.954 2.538-4.559 3.613-3.314 2.216-6.955 3.526-11.011 3.417-1.835-0.051-3.567-0.486-5.088-1.557-1.128-0.791-1.942-1.815-2.107-3.229C12.022 52.441 13.082 51.441 14.753 51.854z" fill="#ffffff" data-fill-palette-color="accent"></path><path fill-rule="evenodd" clip-rule="evenodd" d="M69.212 80.563c1.736 0.545 2.964-0.203 3.344-2.092 0.432-2.152-0.266-4.106-1.252-5.955-1.854-3.476-4.81-5.831-8.182-7.713-1.266-0.704-2.589-1.303-4.115-2.063 0.401 0.054 0.563 0.054 0.713 0.097 5.058 1.465 9.254 4.183 12.273 8.552 1.318 1.906 2.147 4.016 2.051 6.384-0.061 1.506-0.459 2.9-1.762 3.838C70.923 82.584 69.552 82.103 69.212 80.563z" fill="#ffffff" data-fill-palette-color="accent"></path><path fill-rule="evenodd" clip-rule="evenodd" d="M65.797 52.142c0.818 0.574 1.628 1.17 2.462 1.725 3.034 2.019 6.28 3.515 9.966 3.849 2.033 0.183 4.009-0.07 5.842-1.004 0.535-0.273 1.05-0.653 1.453-1.093 1.196-1.298 1.128-2.507-0.125-3.696 0.964-0.451 1.777-0.181 2.186 0.783 0.57 1.344 0.17 2.546-0.712 3.591-1.607 1.901-3.796 2.561-6.179 2.642-4.277 0.149-8.067-1.316-11.531-3.696-1.249-0.857-2.378-1.89-3.562-2.843C65.662 52.313 65.73 52.228 65.797 52.142z" fill="#ffffff" data-fill-palette-color="accent"></path><path fill-rule="evenodd" clip-rule="evenodd" d="M43.831 64.91c0.839 2.473 1.177 5.005 0.999 7.589-0.259 3.787-1.125 7.388-3.529 10.455-1.049 1.339-2.345 2.36-4.016 2.819-1.09 0.297-2.166 0.267-3.139-0.378-1.166-0.768-1.308-1.883-0.339-3.107 0.21 1.004 0.596 1.827 1.64 2.076 1.222 0.294 2.297-0.099 3.253-0.809 2.55-1.892 3.932-4.541 4.708-7.54 0.854-3.299 0.941-6.646 0.522-10.015C43.887 65.638 43.864 65.275 43.831 64.91z" fill="#ffffff" data-fill-palette-color="accent"></path><path fill-rule="evenodd" clip-rule="evenodd" d="M56.135 64.543c0 3.007-0.195 6.029 0.051 9.016 0.289 3.483 1.544 6.693 4.181 9.145 0.766 0.713 1.754 1.312 2.748 1.631 1.663 0.534 2.746-0.271 3.035-1.98 0.938 0.756 1.044 1.691 0.243 2.576-1.017 1.125-2.322 1.179-3.663 0.829-1.861-0.487-3.238-1.691-4.315-3.223-2.551-3.623-3.372-7.743-3.189-12.073 0.084-1.995 0.464-3.976 0.71-5.963C56.003 64.515 56.068 64.53 56.135 64.543z" fill="#ffffff" data-fill-palette-color="accent"></path><path fill-rule="evenodd" clip-rule="evenodd" d="M40.063 57.518c1.235 1.77 2.896 2.013 4.863 1.549 0.601 1.833 1.542 3.352 3.691 3.547-0.535 1.232-1.704 1.851-2.865 1.486-0.469-0.15-0.984-0.386-1.298-0.743-0.791-0.89-1.722-1.374-2.873-1.701C39.718 61.123 39.14 59.511 40.063 57.518z" fill="#ffffff" data-fill-palette-color="accent"></path><path fill-rule="evenodd" clip-rule="evenodd" d="M38.618 45.008c-0.401 2.785-0.385 2.851 1.245 5.11-1.295 1.42-2 3.033-1.148 4.98-1.562 0.218-2.974-0.948-2.758-2.556 0.223-1.676 0.233-3.274-0.002-4.951C35.738 46.049 36.99 45.006 38.618 45.008z" fill="#ffffff" data-fill-palette-color="accent"></path><path fill-rule="evenodd" clip-rule="evenodd" d="M48.67 37.439c-2.357 0.815-2.357 0.815-3.813 3.64-1.838-0.417-3.557-0.232-4.759 1.519-1.133-1.813-0.33-3.7 1.843-4.229 0.908-0.222 1.552-0.621 2.188-1.292C45.679 35.438 47.443 35.602 48.67 37.439z" fill="#ffffff" data-fill-palette-color="accent"></path><path fill-rule="evenodd" clip-rule="evenodd" d="M60.12 50.08c1.379-1.505 2.059-3.116 1.177-5.071 2.021 0.01 3.187 1.364 2.745 3.304-0.281 1.225-0.273 2.33 0 3.552 0.434 1.936-0.715 3.259-2.74 3.31C62.184 53.223 61.505 51.615 60.12 50.08z" fill="#ffffff" data-fill-palette-color="accent"></path><path fill-rule="evenodd" clip-rule="evenodd" d="M51.373 37.422c1.146-1.71 2.817-1.99 4.234-0.616 0.818 0.794 1.635 1.361 2.769 1.674 1.944 0.536 2.521 2.08 1.615 4.204-1.225-1.834-2.964-2.04-4.825-1.616C53.749 38.333 53.749 38.333 51.373 37.422z" fill="#ffffff" data-fill-palette-color="accent"></path><path fill-rule="evenodd" clip-rule="evenodd" d="M51.439 62.743c2.441-0.941 2.507-1.004 3.699-3.659 1.848 0.446 3.595 0.271 4.802-1.546 0.893 1.64 0.591 3.22-0.878 3.823-1.473 0.604-2.775 1.318-3.998 2.362C53.855 64.759 52.232 64.195 51.439 62.743z" fill="#ffffff" data-fill-palette-color="accent"></path><path fill-rule="evenodd" clip-rule="evenodd" d="M29.227 31.759c2.589 4.667 6.519 6.571 11.612 6.54C36.805 40.609 29.95 36.808 29.227 31.759z" fill="#ffffff" data-fill-palette-color="accent"></path><path fill-rule="evenodd" clip-rule="evenodd" d="M44.936 22.498c3.899 3.215 3.699 10.273-0.213 13.554 1.06-2.098 1.924-4.242 2.023-6.636C46.843 27.014 46.196 24.817 44.936 22.498z" fill="#ffffff" data-fill-palette-color="accent"></path><path fill-rule="evenodd" clip-rule="evenodd" d="M64.585 47.693c0.593-4.928 6.478-8.657 11.198-6.926C70.5 40.847 67.011 43.42 64.585 47.693z" fill="#ffffff" data-fill-palette-color="accent"></path><path fill-rule="evenodd" clip-rule="evenodd" d="M24.557 40.696c4.901-1.439 10.506 2.223 10.996 7.342C33.109 43.488 29.625 40.881 24.557 40.696z" fill="#ffffff" data-fill-palette-color="accent"></path><path fill-rule="evenodd" clip-rule="evenodd" d="M55.255 35.944c-3.874-2.909-4.021-10.473-0.152-13.432C52.474 27.125 52.818 31.538 55.255 35.944z" fill="#ffffff" data-fill-palette-color="accent"></path><path fill-rule="evenodd" clip-rule="evenodd" d="M64.463 52.313c4.622 5.965 5.593 6.57 11.209 7.075C71.811 61.559 65.354 57.578 64.463 52.313z" fill="#ffffff" data-fill-palette-color="accent"></path><path fill-rule="evenodd" clip-rule="evenodd" d="M59.142 38.293c5.075 0.053 8.982-1.831 11.599-6.402C70.122 36.786 63.271 40.524 59.142 38.293z" fill="#ffffff" data-fill-palette-color="accent"></path><path fill-rule="evenodd" clip-rule="evenodd" d="M44.918 77.729c2.685-4.727 2.297-9.193-0.337-13.727C48.681 67.025 48.876 74.068 44.918 77.729z" fill="#ffffff" data-fill-palette-color="accent"></path><path fill-rule="evenodd" clip-rule="evenodd" d="M35.484 52.284c-0.347 4.919-6.528 8.818-11.069 7.145C29.496 59.384 32.957 56.787 35.484 52.284z" fill="#ffffff" data-fill-palette-color="accent"></path><path fill-rule="evenodd" clip-rule="evenodd" d="M70.743 68.25c-2.614-4.541-6.485-6.448-11.449-6.361C62.552 59.282 69.973 63.293 70.743 68.25z" fill="#ffffff" data-fill-palette-color="accent"></path><path fill-rule="evenodd" clip-rule="evenodd" d="M29.471 67.801c0.834-4.66 7.127-8.002 11.444-5.933C35.905 61.822 32.057 63.617 29.471 67.801z" fill="#ffffff" data-fill-palette-color="accent"></path><path fill-rule="evenodd" clip-rule="evenodd" d="M54.837 77.377c-3.648-3.588-3.448-10.027 0.426-13.182C52.874 68.516 52.418 72.892 54.837 77.377z" fill="#ffffff" data-fill-palette-color="accent"></path><path fill-rule="evenodd" clip-rule="evenodd" d="M48.542 35.243c0.436-0.499 0.87-0.998 1.392-1.595 0.624 0.588 1.124 1.059 1.623 1.528C50.509 34.523 49.53 34.315 48.542 35.243z" fill="#ffffff" data-fill-palette-color="accent"></path><path fill-rule="evenodd" clip-rule="evenodd" d="M36.869 56.141c-0.317 1.304-0.02 2.254 1.496 2.538C36.222 58.699 35.908 58.159 36.869 56.141z" fill="#ffffff" data-fill-palette-color="accent"></path><path fill-rule="evenodd" clip-rule="evenodd" d="M51.554 64.824c-0.556 0.639-0.971 1.115-1.456 1.674-0.621-0.594-1.123-1.07-1.628-1.547 0.031-0.046 0.061-0.092 0.091-0.135 0.467 0.267 0.925 0.723 1.402 0.743C50.425 65.58 50.904 65.148 51.554 64.824z" fill="#ffffff" data-fill-palette-color="accent"></path><path fill-rule="evenodd" clip-rule="evenodd" d="M63.847 58.215c-0.426 0.159-0.704 0.281-0.991 0.373-0.316 0.101-0.644 0.175-1.021 0.151 0.441-0.312 1.053-0.532 1.272-0.955 0.219-0.424 0.049-1.048 0.244-1.62C63.508 56.817 63.667 57.467 63.847 58.215z" fill="#ffffff" data-fill-palette-color="accent"></path><path fill-rule="evenodd" clip-rule="evenodd" d="M36.874 44.186c-1.019-2.596-0.788-2.388 1.413-2.836-0.565 0.412-1.169 0.638-1.364 1.054C36.709 42.862 36.874 43.496 36.874 44.186z" fill="#ffffff" data-fill-palette-color="accent"></path><path fill-rule="evenodd" clip-rule="evenodd" d="M61.718 41.35c2.279 0.375 2.426 0.623 1.582 2.372C63.025 42.278 63.025 42.278 61.718 41.35z" fill="#ffffff" data-fill-palette-color="accent"></path><path fill-rule="evenodd" clip-rule="evenodd" d="M62.479 28.461c-0.629 1.113-1.261 2.226-1.89 3.338-0.126-0.07-0.253-0.14-0.38-0.209 0.611-1.119 1.222-2.239 1.83-3.356C62.187 28.309 62.331 28.385 62.479 28.461z" fill="#ffffff" data-fill-palette-color="accent"></path><path fill-rule="evenodd" clip-rule="evenodd" d="M29.098 50.24c-1.128 0-2.257 0-3.387 0 0-0.099 0-0.198-0.003-0.296 1.141 0 2.282 0 3.423 0C29.121 50.042 29.11 50.141 29.098 50.24z" fill="#ffffff" data-fill-palette-color="accent"></path><path fill-rule="evenodd" clip-rule="evenodd" d="M39.399 31.732c-0.604-1.059-1.204-2.116-1.805-3.173 0.14-0.079 0.279-0.157 0.416-0.237 0.601 1.054 1.202 2.108 1.802 3.162C39.675 31.566 39.536 31.648 39.399 31.732z" fill="#ffffff" data-fill-palette-color="accent"></path><path fill-rule="evenodd" clip-rule="evenodd" d="M70.885 49.917c1.177 0 2.354 0 3.529 0 0 0.095 0 0.19-0.002 0.284-1.174 0-2.351 0-3.527 0C70.885 50.107 70.885 50.012 70.885 49.917z" fill="#ffffff" data-fill-palette-color="accent"></path><path fill-rule="evenodd" clip-rule="evenodd" d="M60.64 68.457c0.578 1.037 1.159 2.074 1.739 3.111-0.134 0.076-0.269 0.149-0.403 0.226-0.575-1.042-1.15-2.081-1.724-3.121C60.381 68.602 60.511 68.531 60.64 68.457z" fill="#ffffff" data-fill-palette-color="accent"></path><path fill-rule="evenodd" clip-rule="evenodd" d="M37.609 71.604c0.614-1.06 1.225-2.124 1.836-3.185 0.119 0.066 0.238 0.135 0.357 0.203-0.601 1.083-1.202 2.168-1.8 3.25C37.87 71.784 37.741 71.695 37.609 71.604z" fill="#ffffff" data-fill-palette-color="accent"></path></svg></g></svg></g></svg></g></svg></g></svg></g><defs></defs></svg><rect width="395.52" height="134.20891752455452" fill="none" stroke="none" visibility="hidden"></rect></g></svg></g></svg>